<svg width="33" height="32" viewBox="0 0 33 32" fill="none" xmlns="http://www.w3.org/2000/svg">
<path d="M22.8333 4.7465V2.6665C22.8333 2.11984 22.38 1.6665 21.8333 1.6665C21.2866 1.6665 20.8333 2.11984 20.8333 2.6665V4.6665H12.1666V2.6665C12.1666 2.11984 11.7133 1.6665 11.1666 1.6665C10.62 1.6665 10.1666 2.11984 10.1666 2.6665V4.7465C6.56665 5.07983 4.81998 7.2265 4.55331 10.4132C4.52665 10.7998 4.84665 11.1198 5.21998 11.1198H27.78C28.1666 11.1198 28.4866 10.7865 28.4466 10.4132C28.18 7.2265 26.4333 5.07983 22.8333 4.7465Z" fill="#7C63FC"/>
<path opacity="0.4" d="M27.1667 13.1201C27.9 13.1201 28.5 13.7201 28.5 14.4535V22.6668C28.5 26.6668 26.5 29.3335 21.8333 29.3335H11.1667C6.5 29.3335 4.5 26.6668 4.5 22.6668V14.4535C4.5 13.7201 5.1 13.1201 5.83333 13.1201H27.1667Z" fill="#7C63FC"/>
<path d="M11.8333 20.0002C11.4867 20.0002 11.14 19.8535 10.8867 19.6135C10.6467 19.3601 10.5 19.0135 10.5 18.6668C10.5 18.3202 10.6467 17.9735 10.8867 17.7202C11.26 17.3468 11.8467 17.2268 12.34 17.4401C12.5133 17.5068 12.66 17.6002 12.78 17.7202C13.02 17.9735 13.1667 18.3202 13.1667 18.6668C13.1667 19.0135 13.02 19.3601 12.78 19.6135C12.5267 19.8535 12.18 20.0002 11.8333 20.0002Z" fill="#7C63FC"/>
<path d="M16.5001 20.0002C16.1534 20.0002 15.8067 19.8535 15.5534 19.6135C15.3134 19.3601 15.1667 19.0135 15.1667 18.6668C15.1667 18.3202 15.3134 17.9735 15.5534 17.7202C15.6734 17.6002 15.8201 17.5068 15.9934 17.4401C16.4867 17.2268 17.0734 17.3468 17.4467 17.7202C17.6867 17.9735 17.8334 18.3202 17.8334 18.6668C17.8334 19.0135 17.6867 19.3601 17.4467 19.6135C17.3801 19.6668 17.3134 19.7201 17.2468 19.7735C17.1668 19.8268 17.0867 19.8668 17.0067 19.8935C16.9267 19.9335 16.8467 19.9602 16.7667 19.9735C16.6734 19.9868 16.5934 20.0002 16.5001 20.0002Z" fill="#7C63FC"/>
<path d="M21.1666 20.0002C20.8199 20.0002 20.4733 19.8535 20.2199 19.6135C19.9799 19.3602 19.8333 19.0135 19.8333 18.6668C19.8333 18.3202 19.9799 17.9735 20.2199 17.7202C20.3533 17.6002 20.4866 17.5068 20.6599 17.4402C20.8999 17.3335 21.1666 17.3068 21.4333 17.3602C21.5133 17.3735 21.5933 17.4002 21.6733 17.4402C21.7533 17.4668 21.8333 17.5069 21.9133 17.5602C21.9799 17.6135 22.0466 17.6669 22.1133 17.7202C22.3533 17.9735 22.4999 18.3202 22.4999 18.6668C22.4999 19.0135 22.3533 19.3602 22.1133 19.6135C22.0466 19.6668 21.9799 19.7202 21.9133 19.7735C21.8333 19.8268 21.7533 19.8669 21.6733 19.8935C21.5933 19.9335 21.5133 19.9602 21.4333 19.9735C21.3399 19.9869 21.2466 20.0002 21.1666 20.0002Z" fill="#7C63FC"/>
<path d="M11.8333 24.6667C11.66 24.6667 11.4867 24.6267 11.3267 24.56C11.1533 24.4934 11.02 24.4 10.8867 24.28C10.6467 24.0267 10.5 23.68 10.5 23.3333C10.5 22.9867 10.6467 22.64 10.8867 22.3867C11.02 22.2667 11.1533 22.1733 11.3267 22.1067C11.5667 22 11.8333 21.9733 12.1 22.0267C12.18 22.04 12.26 22.0667 12.34 22.1067C12.42 22.1333 12.5 22.1734 12.58 22.2267C12.6467 22.28 12.7133 22.3334 12.78 22.3867C13.02 22.64 13.1667 22.9867 13.1667 23.3333C13.1667 23.68 13.02 24.0267 12.78 24.28C12.7133 24.3333 12.6467 24.4 12.58 24.44C12.5 24.4933 12.42 24.5334 12.34 24.56C12.26 24.6 12.18 24.6267 12.1 24.64C12.0067 24.6534 11.9267 24.6667 11.8333 24.6667Z" fill="#7C63FC"/>
<path d="M16.5001 24.6666C16.1534 24.6666 15.8067 24.5199 15.5534 24.2799C15.3134 24.0266 15.1667 23.6799 15.1667 23.3333C15.1667 22.9866 15.3134 22.6399 15.5534 22.3866C16.0467 21.8933 16.9534 21.8933 17.4467 22.3866C17.6867 22.6399 17.8334 22.9866 17.8334 23.3333C17.8334 23.6799 17.6867 24.0266 17.4467 24.2799C17.1934 24.5199 16.8467 24.6666 16.5001 24.6666Z" fill="#7C63FC"/>
<path d="M21.1666 24.6666C20.8199 24.6666 20.4733 24.5199 20.2199 24.2799C19.9799 24.0266 19.8333 23.6799 19.8333 23.3333C19.8333 22.9866 19.9799 22.6399 20.2199 22.3866C20.7133 21.8933 21.6199 21.8933 22.1133 22.3866C22.3533 22.6399 22.4999 22.9866 22.4999 23.3333C22.4999 23.6799 22.3533 24.0266 22.1133 24.2799C21.8599 24.5199 21.5133 24.6666 21.1666 24.6666Z" fill="#7C63FC"/>
</svg>
