<svg width="33" height="32" viewBox="0 0 33 32" fill="none" xmlns="http://www.w3.org/2000/svg">
<path opacity="0.4" d="M23.8734 10.3598C23.78 10.3465 23.6867 10.3465 23.5934 10.3598C21.5267 10.2932 19.8867 8.59984 19.8867 6.51984C19.8867 4.39984 21.6067 2.6665 23.7401 2.6665C25.8601 2.6665 27.5934 4.3865 27.5934 6.51984C27.5801 8.59984 25.94 10.2932 23.8734 10.3598Z" fill="#7C63FC"/>
<path opacity="0.4" d="M28.22 19.6C26.7266 20.6 24.6333 20.9734 22.7 20.72C23.2066 19.6267 23.4733 18.4134 23.4866 17.1334C23.4866 15.8 23.1933 14.5334 22.6333 13.4267C24.6066 13.1601 26.7 13.5334 28.2066 14.5334C30.3133 15.92 30.3133 18.2 28.22 19.6Z" fill="#7C63FC"/>
<path opacity="0.4" d="M9.0867 10.3598C9.18003 10.3465 9.27337 10.3465 9.3667 10.3598C11.4334 10.2932 13.0734 8.59984 13.0734 6.51984C13.0734 4.39984 11.3534 2.6665 9.22003 2.6665C7.10003 2.6665 5.3667 4.3865 5.3667 6.51984C5.38003 8.59984 7.02003 10.2932 9.0867 10.3598Z" fill="#7C63FC"/>
<path opacity="0.4" d="M9.23324 17.1332C9.23324 18.4265 9.51324 19.6532 10.0199 20.7598C8.13991 20.9598 6.17991 20.5598 4.73991 19.6132C2.63325 18.2132 2.63325 15.9331 4.73991 14.5331C6.16658 13.5731 8.17991 13.1865 10.0732 13.3998C9.52658 14.5198 9.23324 15.7865 9.23324 17.1332Z" fill="#7C63FC"/>
<path d="M16.6599 21.16C16.5532 21.1467 16.4332 21.1467 16.3132 21.16C13.8599 21.08 11.8999 19.0667 11.8999 16.5867C11.8999 14.0533 13.9399 12 16.4866 12C19.0199 12 21.0732 14.0533 21.0732 16.5867C21.0732 19.0667 19.1266 21.08 16.6599 21.16Z" fill="#7C63FC"/>
<path d="M12.3267 23.92C10.3133 25.2667 10.3133 27.48 12.3267 28.8134C14.62 30.3467 18.38 30.3467 20.6733 28.8134C22.6867 27.4667 22.6867 25.2534 20.6733 23.92C18.3933 22.3867 14.6333 22.3867 12.3267 23.92Z" fill="#7C63FC"/>
</svg>
