<svg width="33" height="32" viewBox="0 0 33 32" fill="none" xmlns="http://www.w3.org/2000/svg">
<path d="M28.5001 7H19.1667C18.6201 7 18.1667 6.54667 18.1667 6C18.1667 5.45333 18.6201 5 19.1667 5H28.5001C29.0467 5 29.5001 5.45333 29.5001 6C29.5001 6.54667 29.0467 7 28.5001 7Z" fill="#7C63FC"/>
<path opacity="0.4" d="M28.5001 13.6665H19.1667C18.6201 13.6665 18.1667 13.2132 18.1667 12.6665C18.1667 12.1198 18.6201 11.6665 19.1667 11.6665H28.5001C29.0467 11.6665 29.5001 12.1198 29.5001 12.6665C29.5001 13.2132 29.0467 13.6665 28.5001 13.6665Z" fill="#7C63FC"/>
<path d="M28.5 20.3335H4.5C3.95333 20.3335 3.5 19.8802 3.5 19.3335C3.5 18.7868 3.95333 18.3335 4.5 18.3335H28.5C29.0467 18.3335 29.5 18.7868 29.5 19.3335C29.5 19.8802 29.0467 20.3335 28.5 20.3335Z" fill="#7C63FC"/>
<path opacity="0.4" d="M28.5 27H4.5C3.95333 27 3.5 26.5467 3.5 26C3.5 25.4533 3.95333 25 4.5 25H28.5C29.0467 25 29.5 25.4533 29.5 26C29.5 26.5467 29.0467 27 28.5 27Z" fill="#7C63FC"/>
<path opacity="0.4" d="M11.06 4.6665H7.27333C5.40667 4.6665 4.5 5.57317 4.5 7.43984V11.2398C4.5 13.1065 5.40667 14.0132 7.27333 14.0132H11.0733C12.94 14.0132 13.8467 13.1065 13.8467 11.2398V7.43984C13.8333 5.57317 12.9267 4.6665 11.06 4.6665Z" fill="#7C63FC"/>
</svg>
