<svg width="33" height="32" viewBox="0 0 33 32" fill="none" xmlns="http://www.w3.org/2000/svg">
<path opacity="0.4" d="M20.5133 19.6665V29.3198L4.51335 29.3465V19.6665L4.5 17.6665V9.42648C4.5 8.53315 4.95335 7.70644 5.68669 7.2131L11.02 3.65312C11.9134 3.05312 13.0866 3.05312 13.98 3.65312L19.3133 7.2131C20.06 7.70644 20.5 8.53315 20.5 9.42648V17.6665L20.5133 19.6665Z" fill="#7C63FC"/>
<path d="M29.8334 28.3332H28.1401V24.3332C29.4067 23.9198 30.3267 22.7332 30.3267 21.3332V18.6665C30.3267 16.9198 28.9001 15.4932 27.1534 15.4932C25.4067 15.4932 23.9801 16.9198 23.9801 18.6665V21.3332C23.9801 22.7198 24.8867 23.8932 26.1267 24.3198V28.3332H3.16675C2.62008 28.3332 2.16675 28.7865 2.16675 29.3332C2.16675 29.8798 2.62008 30.3332 3.16675 30.3332H27.0734C27.1001 30.3332 27.1134 30.3465 27.1401 30.3465C27.1667 30.3465 27.1801 30.3332 27.2068 30.3332H29.8334C30.3801 30.3332 30.8334 29.8798 30.8334 29.3332C30.8334 28.7865 30.3801 28.3332 29.8334 28.3332Z" fill="#7C63FC"/>
<path d="M20.5133 19.6665H4.51335L4.5 17.6665H20.5L20.5133 19.6665Z" fill="#7C63FC"/>
<path d="M12.5 30.3335C11.9533 30.3335 11.5 29.8802 11.5 29.3335V24.3335C11.5 23.7868 11.9533 23.3335 12.5 23.3335C13.0467 23.3335 13.5 23.7868 13.5 24.3335V29.3335C13.5 29.8802 13.0467 30.3335 12.5 30.3335Z" fill="#7C63FC"/>
<path d="M12.5001 14.3332C13.7887 14.3332 14.8334 13.2885 14.8334 11.9998C14.8334 10.7112 13.7887 9.6665 12.5001 9.6665C11.2114 9.6665 10.1667 10.7112 10.1667 11.9998C10.1667 13.2885 11.2114 14.3332 12.5001 14.3332Z" fill="#7C63FC"/>
</svg>
