<svg width="33" height="32" viewBox="0 0 33 32" fill="none" xmlns="http://www.w3.org/2000/svg">
<path d="M23.9934 14.3335C23.4201 14.3335 22.9667 13.8668 22.9667 13.3068C22.9667 12.8135 22.4734 11.7868 21.6467 10.8935C20.8334 10.0268 19.9401 9.52013 19.1934 9.52013C18.6201 9.52013 18.1667 9.05346 18.1667 8.49346C18.1667 7.93346 18.6334 7.4668 19.1934 7.4668C20.5267 7.4668 21.9267 8.1868 23.1534 9.48013C24.3001 10.6935 25.0334 12.2001 25.0334 13.2935C25.0334 13.8668 24.5668 14.3335 23.9934 14.3335Z" fill="#7C63FC"/>
<path d="M28.8066 14.3332C28.2333 14.3332 27.7799 13.8665 27.7799 13.3065C27.7799 8.57317 23.9266 4.73317 19.2066 4.73317C18.6333 4.73317 18.1799 4.2665 18.1799 3.7065C18.1799 3.1465 18.6333 2.6665 19.1933 2.6665C25.0599 2.6665 29.8333 7.43984 29.8333 13.3065C29.8333 13.8665 29.3666 14.3332 28.8066 14.3332Z" fill="#7C63FC"/>
<path opacity="0.4" d="M16.2201 18.9465L11.8601 23.3065C11.3801 22.8798 10.9134 22.4398 10.4601 21.9865C9.08675 20.5998 7.84675 19.1465 6.74008 17.6265C5.64675 16.1065 4.76675 14.5865 4.12675 13.0798C3.48675 11.5598 3.16675 10.1065 3.16675 8.71984C3.16675 7.81317 3.32675 6.9465 3.64675 6.1465C3.96675 5.33317 4.47341 4.5865 5.18008 3.91984C6.03341 3.07984 6.96675 2.6665 7.95341 2.6665C8.32675 2.6665 8.70008 2.7465 9.03341 2.9065C9.38008 3.0665 9.68675 3.3065 9.92675 3.65317L13.0201 8.01317C13.2601 8.3465 13.4334 8.65317 13.5534 8.9465C13.6734 9.2265 13.7401 9.5065 13.7401 9.75984C13.7401 10.0798 13.6467 10.3998 13.4601 10.7065C13.2867 11.0132 13.0334 11.3332 12.7134 11.6532L11.7001 12.7065C11.5534 12.8532 11.4867 13.0265 11.4867 13.2398C11.4867 13.3465 11.5001 13.4398 11.5267 13.5465C11.5667 13.6532 11.6067 13.7332 11.6334 13.8132C11.8734 14.2532 12.2867 14.8265 12.8734 15.5198C13.4734 16.2132 14.1134 16.9198 14.8067 17.6265C15.2867 18.0932 15.7534 18.5465 16.2201 18.9465Z" fill="#7C63FC"/>
<path d="M29.7934 24.4402C29.7934 24.8135 29.7267 25.2002 29.5934 25.5735C29.5534 25.6802 29.5134 25.7869 29.46 25.8935C29.2334 26.3735 28.9401 26.8269 28.5534 27.2535C27.9001 27.9735 27.18 28.4936 26.3667 28.8269C26.3534 28.8269 26.34 28.8402 26.3267 28.8402C25.54 29.1602 24.6867 29.3335 23.7667 29.3335C22.4067 29.3335 20.9534 29.0135 19.42 28.3602C17.8867 27.7069 16.3534 26.8269 14.8334 25.7202C14.3134 25.3336 13.7934 24.9469 13.3 24.5335L17.66 20.1735C18.0334 20.4535 18.3667 20.6669 18.6467 20.8135C18.7134 20.8402 18.7934 20.8802 18.8867 20.9202C18.9934 20.9602 19.1 20.9735 19.22 20.9735C19.4467 20.9735 19.62 20.8935 19.7667 20.7469L20.78 19.7469C21.1134 19.4135 21.4334 19.1602 21.74 19.0002C22.0467 18.8135 22.3534 18.7202 22.6867 18.7202C22.94 18.7202 23.2067 18.7735 23.5 18.8935C23.7934 19.0135 24.1 19.1869 24.4334 19.4135L28.8467 22.5469C29.1934 22.7869 29.4334 23.0669 29.58 23.4002C29.7134 23.7335 29.7934 24.0669 29.7934 24.4402Z" fill="#7C63FC"/>
</svg>
