<svg width="33" height="32" viewBox="0 0 33 32" fill="none" xmlns="http://www.w3.org/2000/svg">
<path opacity="0.4" d="M17.8333 4.3335H9.83333C5.27333 4.3335 3.5 6.10683 3.5 10.6668V21.3335C3.5 24.4002 5.16667 27.6668 9.83333 27.6668H17.8333C22.3933 27.6668 24.1667 25.8935 24.1667 21.3335V10.6668C24.1667 6.10683 22.3933 4.3335 17.8333 4.3335Z" fill="#7C63FC"/>
<path d="M15.8333 15.1735C17.2177 15.1735 18.34 14.0512 18.34 12.6668C18.34 11.2824 17.2177 10.1602 15.8333 10.1602C14.4489 10.1602 13.3267 11.2824 13.3267 12.6668C13.3267 14.0512 14.4489 15.1735 15.8333 15.1735Z" fill="#7C63FC"/>
<path d="M29.3666 8.22649C28.8199 7.94649 27.6732 7.62649 26.1132 8.71982L24.1399 10.1065C24.1532 10.2932 24.1666 10.4665 24.1666 10.6665V21.3332C24.1666 21.5332 24.1399 21.7065 24.1399 21.8932L26.1132 23.2798C26.9399 23.8665 27.6599 24.0532 28.2332 24.0532C28.7266 24.0532 29.1132 23.9198 29.3666 23.7865C29.9132 23.5065 30.8332 22.7465 30.8332 20.8398V11.1732C30.8332 9.26649 29.9132 8.50649 29.3666 8.22649Z" fill="#7C63FC"/>
</svg>
